<svg xmlns="http://www.w3.org/2000/svg" viewBox="0 0 100 100">
  <g transform="translate(50 50) scale(0.42) translate(-386 -130)">
    <path fill="#2563EB" d="M 327.304688 38.296875 C 305.941406 38.296875 287.246094 54.320312 295.257812 91.707031 C 303.269531 123.75 319.292969 155.792969 337.984375 182.5 C 354.007812 209.203125 370.027344 225.222656 386.050781 225.222656 C 402.074219 225.222656 418.09375 209.203125 434.117188 182.5 C 452.808594 155.792969 468.832031 123.75 476.84375 91.707031 C 484.855469 54.320312 466.164062 38.296875 444.800781 38.296875 C 423.4375 38.296875 412.753906 54.320312 412.753906 70.34375 C 412.753906 86.363281 402.074219 102.386719 386.050781 102.386719 C 370.027344 102.386719 359.347656 86.363281 359.347656 70.34375 C 359.347656 54.320312 348.667969 38.296875 327.304688 38.296875 Z"/>
  </g>
</svg>
